<svg width="23" height="23" viewBox="0 0 23 23" fill="none" xmlns="http://www.w3.org/2000/svg">
<path d="M1.74026 14.9078V14.9098C1.74026 16.3492 2.29992 17.7004 3.31767 18.7163C4.33542 19.7321 5.68667 20.2946 7.12609 20.2946C7.83329 20.2966 8.53387 20.1583 9.18726 19.8877C9.84065 19.6171 10.4339 19.2196 10.9326 18.7182L20.0818 9.56802C20.8188 8.83202 21.181 7.87464 21.0957 6.86839C21.02 5.94072 20.5705 5.02168 19.8317 4.28281C18.3041 2.75714 15.9332 2.6431 14.5445 4.03172L6.95838 11.6169C6.11409 12.4612 6.19938 13.7732 7.16346 14.7421C8.08251 15.6601 9.48551 15.7512 10.2905 14.9481L15.5719 9.66577C15.8402 9.39743 15.8278 8.97385 15.6227 8.76876L15.3888 8.53493C15.2058 8.35189 14.8455 8.20047 14.4717 8.57327L9.19513 13.8498C9.02263 14.0223 8.58659 13.9716 8.2598 13.6448C8.16588 13.5518 7.7078 13.0573 8.05567 12.7123L15.6409 5.12518C16.4248 4.34222 17.8134 4.45531 18.7363 5.37627C19.2155 5.85639 19.5049 6.43043 19.5499 6.99106C19.5988 7.54018 19.4004 8.05577 18.9855 8.46977L9.83626 17.6209C9.48114 17.9781 9.05863 18.2612 8.59323 18.4539C8.12783 18.6465 7.62882 18.7448 7.12513 18.7431C6.62119 18.7444 6.12199 18.6458 5.65645 18.4528C5.19091 18.2598 4.76828 17.9764 4.41305 17.619C4.05591 17.264 3.77275 16.8416 3.57996 16.3764C3.38717 15.9112 3.28857 15.4124 3.28988 14.9088C3.28988 13.8824 3.68759 12.9193 4.41305 12.1967L11.3217 5.28618C11.4721 5.13572 11.5747 4.73131 11.3485 4.5061L11.0208 4.17835C10.9683 4.12484 10.9055 4.08265 10.8361 4.05437C10.7667 4.0261 10.6923 4.01235 10.6174 4.01396C10.5425 4.01558 10.4687 4.03253 10.4006 4.06377C10.3325 4.09501 10.2716 4.13988 10.2215 4.1956L3.31671 11.1023C2.81528 11.6008 2.41775 12.1939 2.14714 12.8471C1.87653 13.5003 1.73824 14.2008 1.74026 14.9078Z" fill="#B4B4B4"/>
</svg>
