<svg width="22" height="22" viewBox="0 0 22 22" fill="none" xmlns="http://www.w3.org/2000/svg">
<path fill-rule="evenodd" clip-rule="evenodd" d="M4 1.5H18C19.3807 1.5 20.5 2.619 20.5 4V14L14.5194 12.405C13.5108 12.136 12.4714 12 11.4275 12H10.5725C9.5286 12 8.4892 12.136 7.4806 12.405L1.5 14V4C1.5 2.619 2.6193 1.5 4 1.5ZM0 4C0 1.791 1.7909 0 4 0H18C20.2091 0 22 1.791 22 4V18C22 20.209 20.2091 22 18 22H4C1.7909 22 0 20.209 0 18V4ZM8 6C8 7.105 7.1046 8 6 8C4.8954 8 4 7.105 4 6C4 4.895 4.8954 4 6 4C7.1046 4 8 4.895 8 6Z" fill="#2F43F2"/>
</svg>
